<mxfile host="Electron" agent="Mozilla/5.0 (Windows NT 10.0; Win64; x64) AppleWebKit/537.36 (KHTML, like Gecko) draw.io/24.7.8 Chrome/128.0.6613.36 Electron/32.0.1 Safari/537.36" version="24.7.8">
  <diagram name="Page-1" id="2CVnvp-TEpjT4JI1qTwo">
    <mxGraphModel dx="1717" dy="985" grid="1" gridSize="10" guides="1" tooltips="1" connect="1" arrows="1" fold="1" page="1" pageScale="1" pageWidth="1169" pageHeight="827" math="0" shadow="0">
      <root>
        <mxCell id="0" />
        <mxCell id="1" parent="0" />
        <mxCell id="wrkWLxmA2jyl3rPuBJb8-5" value="" style="html=1;align=center;verticalAlign=top;rounded=1;absoluteArcSize=1;arcSize=10;dashed=0;whiteSpace=wrap;fillColor=#808080;gradientColor=#575757;strokeColor=none;shadow=1;" vertex="1" parent="1">
          <mxGeometry x="110" y="190" width="710" height="370" as="geometry" />
        </mxCell>
        <mxCell id="wrkWLxmA2jyl3rPuBJb8-4" value="&lt;font color=&quot;#1a3e4f&quot; style=&quot;font-size: 12px;&quot;&gt;Git2SemVer&lt;/font&gt;&lt;div style=&quot;line-height: 180%;&quot;&gt;&lt;font style=&quot;&quot;&gt;&lt;font color=&quot;#1a3e4f&quot;&gt;MSBuild task&lt;/font&gt;&lt;br&gt;&lt;/font&gt;&lt;/div&gt;" style="html=1;align=center;verticalAlign=top;rounded=1;absoluteArcSize=1;arcSize=10;dashed=0;whiteSpace=wrap;fillColor=#ffcd28;gradientColor=#ffa500;strokeColor=#d79b00;" vertex="1" parent="1">
          <mxGeometry x="231" y="230" width="470" height="171" as="geometry" />
        </mxCell>
        <mxCell id="OcmMTKKRhd18CwY5BDbi-4" value="&lt;br&gt;&lt;div style=&quot;line-height: 180%;&quot;&gt;&lt;font style=&quot;&quot;&gt;&lt;font color=&quot;#1a3e4f&quot;&gt;Default Versioning Engine&lt;/font&gt;&lt;br&gt;&lt;/font&gt;&lt;/div&gt;" style="html=1;align=center;verticalAlign=top;rounded=1;absoluteArcSize=1;arcSize=10;dashed=0;whiteSpace=wrap;fillColor=#ffcd28;gradientColor=#ffa500;strokeColor=#966C00;shadow=1;" parent="1" vertex="1">
          <mxGeometry x="271" y="294" width="170" height="60" as="geometry" />
        </mxCell>
        <mxCell id="OcmMTKKRhd18CwY5BDbi-5" value="&lt;div style=&quot;line-height: 140%;&quot;&gt;&lt;font style=&quot;background-color: initial;&quot; color=&quot;#282f36&quot;&gt;C#&amp;nbsp;&lt;/font&gt;&lt;span style=&quot;background-color: initial; color: rgb(40, 47, 54);&quot;&gt;script&lt;/span&gt;&lt;br&gt;&lt;/div&gt;&lt;div style=&quot;line-height: 140%;&quot;&gt;&lt;span style=&quot;background-color: initial; color: rgb(40, 47, 54);&quot;&gt;(in project)&lt;/span&gt;&lt;/div&gt;" style="shape=note;whiteSpace=wrap;html=1;backgroundOutline=1;darkOpacity=0.05;fillColor=#FFFF99;strokeColor=#d79b00;gradientColor=#CCCC00;shadow=1;" parent="1" vertex="1">
          <mxGeometry x="531" y="291" width="122" height="66" as="geometry" />
        </mxCell>
        <mxCell id="z0DqAipGcNEKGoMIEuKN-2" value="Build host" style="text;html=1;align=center;verticalAlign=middle;whiteSpace=wrap;rounded=0;fontColor=#FFFFFF;" parent="1" vertex="1">
          <mxGeometry x="522" y="505" width="60" height="30" as="geometry" />
        </mxCell>
        <mxCell id="z0DqAipGcNEKGoMIEuKN-6" value="" style="strokeColor=#666666;html=1;labelPosition=right;align=left;spacingLeft=15;shadow=1;dashed=0;outlineConnect=0;shape=mxgraph.rack.dell.poweredge_r740;fillStyle=solid;fillColor=#f5f5f5;gradientColor=#b3b3b3;" parent="1" vertex="1">
          <mxGeometry x="471" y="468" width="162" height="30" as="geometry" />
        </mxCell>
        <mxCell id="z0DqAipGcNEKGoMIEuKN-7" value="&lt;div&gt;Controlled / Uncontrolled&lt;/div&gt;Build number&lt;div&gt;Machine name&lt;/div&gt;&lt;div&gt;....&lt;/div&gt;" style="text;html=1;align=left;verticalAlign=middle;whiteSpace=wrap;rounded=0;fontColor=#CCCCCC;" parent="1" vertex="1">
          <mxGeometry x="641" y="455" width="160" height="70" as="geometry" />
        </mxCell>
        <mxCell id="v0hIrqqeMuFZDWVjj2N_-1" value="&lt;div style=&quot;line-height: 200%;&quot;&gt;Git&lt;/div&gt;" style="html=1;align=center;verticalAlign=top;rounded=1;absoluteArcSize=1;arcSize=10;dashed=0;whiteSpace=wrap;fillColor=#314354;fontColor=#ffffff;strokeColor=#314354;shadow=1;" parent="1" vertex="1">
          <mxGeometry x="321" y="459" width="100" height="46" as="geometry" />
        </mxCell>
        <mxCell id="v0hIrqqeMuFZDWVjj2N_-6" value="" style="shape=flexArrow;endArrow=classic;html=1;rounded=0;endWidth=21.04;endSize=10;width=39.6;fillColor=default;" parent="1" edge="1">
          <mxGeometry width="50" height="50" relative="1" as="geometry">
            <mxPoint x="136" y="327" as="sourcePoint" />
            <mxPoint x="246" y="327" as="targetPoint" />
          </mxGeometry>
        </mxCell>
        <mxCell id="v0hIrqqeMuFZDWVjj2N_-7" value="MSBuild&lt;div&gt;parameters&lt;/div&gt;" style="edgeLabel;html=1;align=center;verticalAlign=middle;resizable=0;points=[];labelBackgroundColor=none;" parent="v0hIrqqeMuFZDWVjj2N_-6" vertex="1" connectable="0">
          <mxGeometry x="-0.0982" relative="1" as="geometry">
            <mxPoint as="offset" />
          </mxGeometry>
        </mxCell>
        <mxCell id="v0hIrqqeMuFZDWVjj2N_-8" value="" style="shape=flexArrow;endArrow=classic;html=1;rounded=0;endWidth=21.04;endSize=10;width=39.6;fillColor=default;" parent="1" edge="1">
          <mxGeometry width="50" height="50" relative="1" as="geometry">
            <mxPoint x="687" y="329" as="sourcePoint" />
            <mxPoint x="797" y="329" as="targetPoint" />
          </mxGeometry>
        </mxCell>
        <mxCell id="v0hIrqqeMuFZDWVjj2N_-9" value="MSBuild&lt;div&gt;parameters&lt;/div&gt;" style="edgeLabel;html=1;align=center;verticalAlign=middle;resizable=0;points=[];labelBackgroundColor=none;" parent="v0hIrqqeMuFZDWVjj2N_-8" vertex="1" connectable="0">
          <mxGeometry x="-0.0982" relative="1" as="geometry">
            <mxPoint x="-1" as="offset" />
          </mxGeometry>
        </mxCell>
        <mxCell id="v0hIrqqeMuFZDWVjj2N_-11" value="&lt;div&gt;&lt;font color=&quot;#ffffff&quot;&gt;Git history &amp;amp; status&lt;/font&gt;&lt;/div&gt;" style="text;html=1;align=center;verticalAlign=middle;whiteSpace=wrap;rounded=0;fontColor=#808080;" parent="1" vertex="1">
          <mxGeometry x="307.5" y="505" width="127" height="33.25" as="geometry" />
        </mxCell>
        <mxCell id="wrkWLxmA2jyl3rPuBJb8-1" value="" style="shape=flexArrow;endArrow=classic;html=1;rounded=0;endWidth=21.04;endSize=7.608333333333334;width=17.5;strokeColor=#575757;fillColor=none;" edge="1" parent="1">
          <mxGeometry width="50" height="50" relative="1" as="geometry">
            <mxPoint x="457" y="323.58" as="sourcePoint" />
            <mxPoint x="517" y="323.58" as="targetPoint" />
          </mxGeometry>
        </mxCell>
        <mxCell id="wrkWLxmA2jyl3rPuBJb8-10" value="" style="endArrow=block;html=1;rounded=0;entryX=0.298;entryY=0.995;entryDx=0;entryDy=0;entryPerimeter=0;exitX=0.5;exitY=0;exitDx=0;exitDy=0;endFill=1;startSize=7.874;endSize=7.874;strokeColor=#000000;" edge="1" parent="1" source="v0hIrqqeMuFZDWVjj2N_-1" target="wrkWLxmA2jyl3rPuBJb8-4">
          <mxGeometry width="50" height="50" relative="1" as="geometry">
            <mxPoint x="501" y="581" as="sourcePoint" />
            <mxPoint x="551" y="531" as="targetPoint" />
          </mxGeometry>
        </mxCell>
        <mxCell id="wrkWLxmA2jyl3rPuBJb8-11" value="" style="endArrow=block;html=1;rounded=0;entryX=0.687;entryY=1.005;entryDx=0;entryDy=0;entryPerimeter=0;startArrow=block;startFill=1;endFill=1;endSize=7.0866;startSize=7.874;strokeColor=#000000;" edge="1" parent="1" source="z0DqAipGcNEKGoMIEuKN-6" target="wrkWLxmA2jyl3rPuBJb8-4">
          <mxGeometry width="50" height="50" relative="1" as="geometry">
            <mxPoint x="395" y="561" as="sourcePoint" />
            <mxPoint x="389" y="412" as="targetPoint" />
          </mxGeometry>
        </mxCell>
        <mxCell id="wrkWLxmA2jyl3rPuBJb8-12" value="" style="shape=image;imageAspect=0;aspect=fixed;verticalLabelPosition=bottom;verticalAlign=top;image=data:image/png,iVBORw0KGgoAAAANSUhEUgAAAQAAAAEACAYAAABccqhmAAAABGdBTUEAALGPC/xhBQAAACBjSFJNAAB6JgAAgIQAAPoAAACA6AAAdTAAAOpgAAA6mAAAF3CculE8AAAAB3RJTUUH5QUDEzgr9UtYnQAAAAZiS0dEAAAAAAAA+UO7fwAAFU1JREFUeNrt3XuwXWV5BvB9ck4u5Aq5KIZAKqJ1pKGbnPW+XAIVh9thv+8Op9jamVpKZ6JjR6O9aosUSr3OQK1iqzhYEiudEbVYrLUtY6VQRe5U6mASwnq+4KUilwREYkJu/ePsgzE5Sc5lr7W+/a3nmflmGP7LWut9zlq/vS6NBpN0gmlfMF0Cl5OD6+/mrv8El3vhsgGu++C6DS7fhss3g8t7YXoOTJejNTgnDDW5ARmmh4f/WJi24fo5uD7dGfgjre0wfRgmV+cmp4bh5gC3JMP00uC3ZDZMLoTrjXB9apyDP9b6FlzWhpYs41ZlmF4Yfs/mwGUNXB6B664pDP/o2grTz+YmK7h1GSbq4ZdZweWqzl/9vV0Y/tG1Ay53op0NhuFmH7c0w0SW3GRxbvKFLg79wcvkcXi2Kgw3p3GLM0w8w788N7kRri8WWgAjJbABnp0dhpv93PIMU/3wn5ib3ADX5wsf/pG1By73wbPzWQIMU+3wH5ebfBquPylp+EfXLrjcDc/OZQkwTDXDPzc3WQ/XF0oe/tG1GyYPwrPTCIMMU+7wLyoc/MZvAlsIgwxT3vCXB36EQYaJavhP7FzzPx/N8BMGGaaU4V9WEfgRBhmm4uGfVzH4EQYZpqLhHwW/vZEPP2GQYbo8/KPgt6tnhv/nJbCRMMgwkx/+WMGPMMgwBQ9/7OBHGGSYmoPfRGHwdMIgw6QGfuM3gUAYZJjDg9+6ngS/icHgWbwcYJixwe+nyQ4/YZBhkgY/wiDDTHD45ycGfhOBwQcIg0ydh39hsuBHGGSYww7/CcmD3/hLYBNhkKlNQksWw/SjNQA/wiDDjFEAC2DyPrg+x+EnDDI1DEwWwuRjUb3VJ4YSIAwyNSqBaTD5SA1/ATjc2gsTEAaZupTAnE4JbOXwEwaZepbAy2FyDVyf4fDvdyYwAoPnsQSYOpTAK2ByLWGQMMgQBgmDB8PgGYRBpg4l0E8YJAwyhEHCIGGQqXEJvIwwOCYM3k8YZAiDhEGWABNHguvc4NoOw82ZhEHCIFOj5CbHdB7pfRYmH0J7cGEYbhIGy4HBnDDIVDn8o4/07u4clM/C5ANoDy4uoAQIg2PD4KOdEuDlAFPq8B/qHX7bYPKhsHrlXMIgYZBJc/iPP8I7/J6DyV8VZAKEQcIgU+HwLxjnO/y2wuSqgkpgEWHwsDBIE2AKBb894zwonysQBgcIg4RBpjrwG+8qAwa3cfgJg0z54DfetQ0mHyQMEgaZ9MBv3wQuB95XMAw+y+EnDDLlg994V9Ew+FG47uTwHwSDZ9IEmKLBb98EYfCYAmFwO4f/F2DwMcIgUwb4xQCDs2HyN4TBg2BwM2GQKQP8JgqD8wqCwWsJg4RBphrwIwwSBpkeG/6jO6f9ZX+uizBYPgzeTxhkDhz+IsAvdhjcA9efHbAIg0ztTvuLBL+YYPBHcH0crvfD9atwvRkuH95vXdv5/3fA9budy4e9icPgmbwcIPjF8pXeomHwUri8ES4nB8/GPOjDcHNaWC0vh8vrYfpOuH4GriAMMgS/HofBySS0ZDFcLoDLNZ2zB8IgQ/DrVRicVAkMN/vydjYfJm+A620RXC4VUQKEwZqBX+wH8bNFweAUzgb64Dozd/nLBH9eJAwS/KIsgUJgcIpFMD2YrEnSBkZKgDBI8ItmFQaDUyoBz2bB5TK4biEMMgS/GsHgfmcCC2DyLrg+QRhkCH41gsGfb99sHkz/LsG7DQmDBD/C4LjOBFavXJCbfDvROwY3EwZ7G/z2JHZQjsLgkphKILfsN+C6I9E7BgmDBL/4YBDtwWhgEKZzYfq1hJ8dIAz2yPCf0OPgN24YDCZDEYFgP0zelPCTh4TBHhj+YxIBvyOu3GQ7PFsR0/aHyeuQpgUcCIM0gQiHf0Fi4HeE61L9L5jGdW9AWxfC9W9r8CgxYTBC8FufIPgdDqY+kFs2M7Z9Adffq8V7BQiD0YFf3T6R9euhJdPiKwA5H66ba/JSkQdoAgS/am4KctUo94mrdl44wncMMgS/gtZmuJwS436ByevgenvNXjRKGCT4lblkU6wFEDxbCtcv1fDjI4+yBAh+tS8AeLYcrl+p6cdHcnh2Bi8HCH61LYDcpAnXu2r8GTLCIMGvhMeDXU+LFAEzuN7Dj4+wBAh+Ra62XBCGm30R/gw4lPBbhAmDBL9o1pWhrTMiA8BpcH170t8SmBwM9nGSCX7dXl/LXeZG9td/EVw/xX1DGCT4lfM04Kviuv6XRXA91GfI9hEGWQIEv+7+dfmTqC4Bhpt9aMtrRz45VpvvDBIGuzz8Cwl+414bw1BzYYQl8Cq43jpy4HM/HQCDZxEGDz388zvgxwNnfOuF3OUPQ0v6YyuBsHpwEVy/zH150OXAJsLg2MO/jOA3qfUITCTGfYrVg4vh+s+8HDjo0g2EQYJft9YOuKzLXZbGtl87lwMndUyAMHgwDJ5b+xIg+HVlPQ3Ty0NL5kdaAoRBwiDBr+D1ZDB5Z2jJjEhLgDA4dgncV0sYJPgVczkQTN4ZXI6KsQQIg4TBA8GPt4wW8MsAXP8idz0+xr8qYQQGb+XlwJgweHrylwMEv1LW83D9PFw8RHa78H6XA4TBusEgwa/UtRuum2F6fTBdRRjsKRg8P7kSIPhVtnbC9aHg2asJg4RBgl8919bg2aS/JBpM5sHkNbnJzG6XAGFwzLUnGRgk+PV+AeSuy3PX63OTt+UmcwqAwUWEwTFhMPQ0DBL80ikAuP4rXLd0SmBGQZcDhMGDS6A3YTA3WU7wS64A9sH1+7nJWwiDZWJuj8FgbrKI4JdsAYyWwKWEQcLgWMM/j+CXfAG8dCZQEAwuJgyOCYMbo4ZBgl+tCmAfXL9HGCQMEvzqWwD79oPBmQVdDhAGDy6BB6OCQYJfrQuAMFhnGOyA342d+8+5c+pZAEXD4EmdNwvRBA6GwbMrg0GCHwugLBgEYTAuGCT4sQAOsQiD5ZvAFnh2WmmXAwQ/FsARFmEwVRgk+LEAJnAmUCQMfo5nAiXDIMGPBTDBVTYM7oTLJrg8BNPb4fIfcPkfmG5BPT4uWxwM5iZzO+D3IgeKBTDBEigKBpfA9BMw+evQktVoDZ4AlwVwmQ/TubnL3M5/L4DrYri8Ea6fhOsGuD6HNL9BsQcmG7oKg7nJcR3w4zCxACZbAoXA4KTKY6g5L3e5JDf5Elx/SBgk+LEAii2AwmBwKsHFK+fkrm+G621JXtZOFQY74HcDwY8F0IUCKAwGp3g20A/LXg3XD8L1x4TBnw//YoIfC6DLBVAYDE75Mtf1GJj+PlyfrT0M5pbNIvixAAoqgP1hMKqvGIWWTA8uFyb4R2/8MBg8m5ObXMWhYQEUWADRweB+JdAfTN4K1ycSNIHH0c4GD/ePnw2XNXB9ikPDAii4AKKEwc4Z8Dy4XJnm5a/cmZusGFtFTS6EyyO8v58FUFIBjMLgW2MzAXj2SrjckuANRDtg+tnQkmUH/vU/Fqbr+LQVC6DkAogSBsNwsy+37GK4IsXjAS5rw3BzYHT4+2Da5qk/C6CiAhg9E1gTEwzmlk2H6Q2JYvjducvKMNRsNEJLlsD0Zg4KC6DCAhg9E/it0JL+iFBQ4PqDRO8WvBKtwdkNuJwM16c5KCyAigvgRZi+N7RkVkSXAjNzk39L9Li4H6bHN4LJZRwSFkAEBbAFpqvjA0F5W6LHxXaYntOA6S0cEhZABAVwB9r6utgKIKzOTkr12MhdP9gYuVWQg8ICqLQA9sL1H8LFK4+K8AzgKLg+muaxId9qwORxDgkLoOIC2A7T9zciDExnwDRRB5CHGxwQFkAEBfAcXP40xgLIXafnrjckemxsayT4BBRX7xXAk7nLmigLwGQgd/l4qsdHAy4Pc0hYABUXwPdz1+EoLwFaMgCT9yd6bHyvAZe7OCQsgIoLYBtc/ijSS4CB3PX6RA3g3gZMruCQsAAqLoCfwOXyWA0Arp9J9G7AmxowPQf80AILoNoC2AXTj8b5K4DMgMvtKR4bweSyBkyXw/R/OSgsgIpvBPp88Ozo+O4D0FlwfTLB4+IZtOXkBlqDc2ByNQeFBVBxAdydu54a3Z2Anp2a5um/3hxMljTCULORu6yE690cFhZAhQXwFEzeHIZK/tLtEf/98r4Ej4mnYbo6tKRv9Kmngdxk7cjLAjg0LIBKCmAfXK5DazCay4DQkmPgsiGx42EXXNeFlhx74D92GUxvgusODg0LoJoC0A1wOa30790fGgDfktiNcnvh+ghcLzzUP3gFXO7k0LAAKiqAXXC9Knep/KGg0NZXwPUrib0X8CmYrAktmX3o1mtng3DlA0IsgCoKYB9cf4TW4K9U/CKQAZi+PbXX5OUmVwXP5hzxhYhoyyq4bkSaX1BlAcRdAPtgcnvuOrOiv/x9ucvpcL0X6bwh+0WYfDG3bNZ4G3Aa2nI2XO8D3xTMAii7AFx35q5Xh5bMLxn9GsHllXD9fEL7/3mYrIPJ4omeBvXD5Xy43oP03o/OAoi7APbB9UmYrA2ezS2xAJbA5ZNw3ZnIvv8JTD4Nk+WTvRbqh8u5cH2Ig8QCqGAFmKwNLVlQwvAvgst1SOc14Nth8vcwOXGqINKPtpxGGGQBVLSeCC7vCQX+MhDa+ktwuR4pfQ7M5DOwA74ANIUSIAyyAKr8N7wAl1uxenBpcJ3RpaFvhHY2J3e5AK53JHTa/yJMvgiTed3+aYQwyAKo+CYW2RJc3w3T14R2NjsMT+6fFUyPhsmpcP1YYjf6/LQDfouK+n2UMMgCqHrt6Dy3cnVucl5oZUtf+s7dYf/iy3S4vAYuF8P1IzDdnNh+nhr4TQIGH+RwsQAqXpvgegtcrs1d18J1OLgOBdcLgsu5wXUoN/lNuKzFyFt9boPrDxO8jH2hK+A3QRg8Ha5bOGAsgCiue0ceZHscrjlcH4Pr5s5/fz/xh9z2dhX8CIMsgB4sgLquXYWA3yRg8H7CIAuAKyHwIwyyAFgANQc/wiALgAVQc/AjDLIAWAA1B79JwOAmwiALgCsh8CMMsgC4ag5+hEEWAFfNwY8wyALgqjn4TQIGA3cmC4ArIfAjDLIAuAoHv/mNFNKBwbMIgywArsTAjzDIAuCqOfhNsATO68DgXu5wFgBXIuA3QRg8gzBY2rvh/iWsXvkyFgDBL0YYfJRnAoWsnXD9BiwbhsmiqXxrL3ftz11fn5t8feTdfNy+BD/CYKxrD1wB0yuCZ4u7ur+GmvNhuhau3+V27jr4LWzUMYTBrq/vwPSSMNycUdg+a8mvwfUu7q+ugd8JjTqHMNi19Q2YDBW+vzybBhPNTb7CMzeCX7dhEDw4JrW+C5PzcsumlbK/WtIPk1Nzk3/nmcAkLtNM1sPkeE4+YbAbK4fpJTAZKHV/tWQaXE+H67e5vwh+hMFq1nO5yeVhuDm9qn2Wu7wRrk9zXxD8ioBBlsDhxf+rwbOXVb3PYLqe+4PgRxgs+a8/LPMo9ldbT4HrD7hPDgl+nyb4EQa7vOS/w1BzZiQFMAuuH+c+IfgRBku6dTS09Xei2U9t7YPpWbSAX1i7O+C3gJNMGOzqyk3+Lzc5Oqb9lLscD9dbuX9eAr/1BD/CYFEP+PwjTGZHtY9aMhOm7+FLXwh+RcPgA7W/HDB5R7goG4htH+Umb4LrMwQ/gl+RMHgmYVDOC0OTf8KvuMsAXdW5MYjgxxRqAqsw8vnnOp4JAC6/GuO+yS1bAdc7CX5MWSVQQxiUTXA5Jcr94tlSuN5SU/A7hpNZjQnUDAZZAAQ/psYwyAIg+DFjwWDOAqjcAF4L1/8k+DGEweLWi3A9Kww14ysA1wyu9xL8mCpL4IHkTcDksnDRyv7Y9gFcLoHrEwQ/hjBYbAF8CiZHRbXtWzIAl3clvN0JfoTBaBxgAzyuU9Dc5Vi43kTwYwiDJbxaKrT1DVGd/ps2E71Dk+DX4ybwWJJnAqbrYrkdOHg2AJd3JPgg0Cj4Hc2JIgzGtp5BK4vi50C4LIXLRoIfQxgs9+fAdcGzyt8wC5PLCX4MYbD89QOY/HYYblb2aHDuciZcv5fYX36CX8Iw+Fhibwb+Zu6aVXTtv7TzFqDdCV3zE/wIgz32sQnXL+cuJ4aWlLMdW9IILVkCl48n9MVggl+NSuDM5GDQdH1wXV7C8PcFk2Vw+WTHIVICPw4/YbCn1xdykxVhuFnYbcKhrSfC5RNw3ZkY+PG0nzCYwuWAfA0mF4eWzOny9pqem6yC6xcTGn6CH2HwJRPYl5AJ5DC9LvfspDA89ZuFgulxcLkarg8nCH78qY8mIKs6tw2n9BPhDrg8mptcEy5aeTxMZgST/iNBYRhuNoINTstNpsNlQTD9Y5h+p4N9e5P59WQE/HiTD5MwDP7iwyy3BZc/gMsquPxybnJCcF263zoOLq+Fi8DkUph8Fi5bE90WBD+mNjB44PrZyNOE+nW4fmm/9eXOpdDzNXiHH8GPqQ0MchH8mEnA4GYOTVJP9RH8mNrDYF2/2EPwYwiDNf1W33q+wJMhDNb3K70EP6YrJXA/LwcIfgxhkANG8GNqDIPgmQDBjyEM0gQIfgxhkMMXwfoxTK8j+DFllsD5hMFI3o5sekVoyWIemUzZMHgWXB/lEFa2dsL0z0NLFvKIZAiDNdP+YHJVt198wjATLYE+tOUMuD5IEyhtbQ0mfxZacX0glSEMEgbLAb/3hhZ/6mMIgwQ/hiEMEvwYhjBI8GOY6GBwNweY4McQBjnMBD+GMMg1zvU0wY8hDBL8GCYZGAw8EzjyI70EP4YwWF/we09oySweMQxhkODHMEnD4B4OPsGPqS8MbuLw6w6CH1N3GCT4MUxNYfD0msLgNoIfwxIYMYFzawaDBD+GqSkMEvwY5hAweHbiMEjwY5hxwOAWgh/DEAZ3E/wYhjBI8GMYwiDBj2HqCIMbexj8FnFPMky9YHAvwY9h6gmDBD+GKcgEYodBgh/DFFwC58P1vghhkODHMKWUQHww+DOCH8OUVwKjMPh4ROA3l3uGYcorgT605TS4PlQhDBL8GKZiE6gKBgl+DBNJCZQNgwQ/homqBMqDQYIfw0RYAqXAIMGPYeItgT60s0G43AnXHd2Ufrg+FUzeHVoyk1uaYSIOTFbA9Ca4bu3C8O+C6yMwWRM84739DNMTZwMtWZabrIXr3VPCPtd1cL0wtGQ2tyrD9NYlwUDushImV3beK7B9nIP/DExvhunq0JJjuSUZpldLYKjZQGtwNkxPgOk5MLkCLnfB5WG4Pjsy8LIRLvfA5KZgchnacnIwWRJa0sctmHb+HwWDGZpH/MHBAAAAJXRFWHRkYXRlOmNyZWF0ZQAyMDIxLTA1LTAzVDE5OjU2OjQzKzAwOjAw34cYhgAAACV0RVh0ZGF0ZTptb2RpZnkAMjAyMS0wNS0wM1QxOTo1Njo0MyswMDowMK7aoDoAAAAASUVORK5CYII=;" vertex="1" parent="1">
          <mxGeometry x="331" y="472" width="26" height="26" as="geometry" />
        </mxCell>
      </root>
    </mxGraphModel>
  </diagram>
</mxfile>
